<?xml version="1.0" standalone="no"?>
<!DOCTYPE svg PUBLIC "-//W3C//DTD SVG 20010904//EN"
 "http://www.w3.org/TR/2001/REC-SVG-20010904/DTD/svg10.dtd">
<svg version="1.0" xmlns="http://www.w3.org/2000/svg"
 width="300.000000pt" height="300.000000pt" viewBox="0 0 300.000000 300.000000"
 preserveAspectRatio="xMidYMid meet">
<metadata>
Created by potrace 1.11, written by Peter Selinger 2001-2013
</metadata>
<g transform="translate(0.000000,300.000000) scale(0.100000,-0.100000)"
fill="#000000" stroke="none">
<path d="M1038 2933 c-28 -7 -74 -97 -94 -188 -23 -100 -30 -155 -28 -220 4
-86 12 -164 19 -174 3 -5 -6 -22 -19 -38 -35 -42 -122 -213 -150 -296 -7 -22
-24 -14 -109 49 -31 24 -59 44 -62 44 -12 0 -3 -72 19 -150 32 -114 53 -165
92 -225 18 -27 29 -51 24 -53 -13 -5 -68 36 -116 86 -22 23 -45 42 -49 42 -11
0 0 -101 16 -147 18 -52 64 -120 118 -173 l46 -44 -43 24 c-23 13 -42 27 -42
32 0 4 -7 8 -15 8 -40 0 9 -113 76 -175 81 -74 163 -134 257 -187 97 -55 151
-84 192 -104 50 -24 195 -68 223 -66 19 1 19 -2 17 -69 -1 -29 4 -50 13 -58
24 -19 -70 -155 -126 -182 -67 -32 -228 -161 -270 -215 -20 -27 -52 -77 -70
-111 -17 -35 -36 -63 -42 -63 -14 0 -75 38 -75 47 0 5 -18 28 -41 53 -81 90
-155 225 -220 400 -116 314 -145 476 -142 790 1 151 4 203 19 285 4 22 7 43 6
47 -3 13 37 201 57 268 11 36 48 151 84 257 42 125 60 194 53 197 -6 2 -1 5
12 5 19 1 21 5 16 26 -4 15 -1 32 7 42 12 14 12 16 0 8 -11 -6 -13 -4 -8 9 4
10 3 15 -3 11 -6 -3 -10 1 -10 9 0 9 -4 16 -10 16 -5 0 -9 3 -9 8 4 21 -2 32
-13 26 -8 -5 -7 0 2 11 8 10 10 16 3 12 -6 -4 -13 -1 -16 5 -3 10 -8 10 -23
-2 -17 -13 -18 -13 -7 0 8 10 9 21 3 30 -7 10 -10 11 -10 3 0 -7 -5 -13 -11
-13 -5 0 -7 6 -3 13 6 9 5 9 -7 0 -8 -6 -18 -12 -24 -13 -134 -29 -312 -335
-359 -615 -34 -205 -40 -644 -12 -791 5 -26 14 -81 21 -131 3 -21 8 -49 11
-63 2 -14 6 -36 9 -50 17 -88 34 -169 60 -273 18 -76 92 -257 143 -352 86
-159 222 -351 314 -443 124 -124 58 -112 631 -111 378 0 496 3 490 12 -5 9 -3
9 8 1 21 -16 395 -19 404 -3 5 6 9 35 11 62 4 84 -21 118 -135 189 -23 14 -25
20 -28 129 -1 63 -4 123 -6 134 -2 11 1 38 7 59 8 29 17 40 35 43 61 9 120 57
128 105 2 10 4 21 4 25 3 12 -18 58 -45 100 -13 21 -27 56 -30 79 l-5 41 57
12 c77 17 203 61 223 77 8 8 18 14 22 14 22 0 141 83 185 129 74 78 171 244
188 321 14 67 22 141 20 198 -1 41 2 62 10 62 18 0 45 36 38 53 -8 21 -34 26
-59 11 -20 -13 -20 -10 -21 94 -1 105 -26 228 -44 217 -4 -3 -11 -24 -15 -47
-5 -24 -9 -45 -10 -48 0 -3 -5 -20 -9 -38 -9 -39 -18 -33 -36 23 -7 22 -31 78
-53 125 -35 73 -40 92 -37 140 14 213 -7 342 -82 497 -31 66 -41 77 -76 87
-17 6 -30 -1 -61 -31 -51 -51 -143 -171 -181 -237 l-30 -54 -53 13 c-28 7 -77
16 -108 20 -31 3 -67 8 -80 11 -52 10 -349 2 -407 -11 -18 -5 -38 8 -94 60
-94 87 -172 145 -261 193 -76 42 -160 71 -189 65z m-437 -160 c13 -16 12 -17
-3 -4 -17 13 -22 21 -14 21 2 0 10 -8 17 -17z m-31 -18 c0 -2 -9 -3 -19 -2
-11 0 -18 5 -15 9 4 6 34 0 34 -7z m-74 -37 c3 -4 -1 -5 -10 -4 -8 1 -18 5
-22 8 -3 4 1 5 10 4 8 -1 18 -5 22 -8z m114 -22 c-7 -7 -13 -7 -20 0 -6 6 -3
10 10 10 13 0 16 -4 10 -10z m-62 -61 c-3 -3 -9 2 -12 12 -6 14 -5 15 5 6 7
-7 10 -15 7 -18z m-61 -2 c0 -8 -4 -10 -12 -3 -7 5 -16 6 -20 2 -5 -4 -5 -2
-2 4 9 15 34 13 34 -3z m136 -28 c-3 -9 -8 -14 -10 -11 -3 3 -2 9 2 15 9 16
15 13 8 -4z m1502 -953 c-3 -3 -11 0 -18 7 -9 10 -8 11 6 5 10 -3 15 -9 12
-12z m-400 -11 c3 -5 2 -12 -3 -15 -5 -3 -9 1 -9 9 0 17 3 19 12 6z m615 -15
c0 -2 -8 -10 -17 -17 -16 -13 -17 -12 -4 4 13 16 21 21 21 13z m-55 -36 c10
-11 16 -20 13 -20 -3 0 -13 9 -23 20 -10 11 -16 20 -13 20 3 0 13 -9 23 -20z
m95 14 c0 -8 -19 -13 -24 -6 -3 5 1 9 9 9 8 0 15 -2 15 -3z m-249 -28 c-9 -11
-9 -15 1 -18 8 -3 7 -6 -4 -10 -9 -4 -15 -2 -14 5 2 15 16 37 23 37 3 0 0 -6
-6 -14z m44 -15 c-1 -8 -7 -16 -14 -17 -7 -2 -7 0 -1 3 7 3 8 9 1 17 -8 9 -7
13 3 13 8 0 13 -7 11 -16z m113 -30 c-7 -9 -13 -18 -15 -20 -1 -2 -1 5 0 16 0
11 7 20 14 20 10 0 10 -4 1 -16z m-38 -33 c0 -4 -4 -8 -9 -8 -6 0 -12 4 -15 8
-3 5 1 9 9 9 8 0 15 -4 15 -9z m-43 -13 c0 -8 -4 -12 -9 -9 -5 3 -6 10 -3 15
9 13 12 11 12 -6z m99 -11 c1 -9 0 -13 -4 -10 -3 4 -7 14 -8 22 -1 9 0 13 4
10 3 -4 7 -14 8 -22z m190 -16 c3 -4 -1 -5 -10 -4 -8 1 -18 5 -22 8 -3 4 1 5
10 4 8 -1 18 -5 22 -8z m-306 -2 c0 -2 -8 -10 -17 -17 -16 -13 -17 -12 -4 4
13 16 21 21 21 13z m114 -14 c2 -4 -5 -9 -17 -9 -17 -2 -19 0 -7 7 18 12 18
12 24 2z m-40 -52 c-6 -6 -10 -3 -10 10 0 13 4 16 10 10 7 -7 7 -13 0 -20z
m42 10 c0 -12 -4 -16 -9 -11 -5 5 -6 14 -3 20 10 15 12 14 12 -9z m120 0 c0
-12 -4 -16 -9 -11 -5 5 -6 14 -3 20 10 15 12 14 12 -9z m-225 -13 c-10 -9 -11
-8 -5 6 3 10 9 15 12 12 3 -3 0 -11 -7 -18z m199 19 c0 -2 -8 -10 -17 -17 -16
-13 -17 -12 -4 4 13 16 21 21 21 13z m3 -41 c-3 -9 -8 -14 -10 -11 -3 3 -2 9
2 15 9 16 15 13 8 -4z m-173 -5 c0 -5 -2 -10 -4 -10 -3 0 -8 5 -11 10 -3 6 -1
10 4 10 6 0 11 -4 11 -10z m77 -7 c0 -9 -4 -10 -12 -3 -7 5 -15 7 -18 3 -4 -3
-7 -1 -7 5 0 6 8 10 18 9 10 0 19 -7 19 -14z m-337 -691 c0 -5 -7 -9 -15 -9
-8 0 -12 4 -9 9 3 4 9 8 15 8 5 0 9 -4 9 -8z m57 -7 c0 -8 -4 -12 -9 -9 -5 3
-6 10 -3 15 9 13 12 11 12 -6z m39 -37 c4 -6 3 -8 -4 -4 -6 3 -15 -2 -21 -11
-6 -10 -11 -13 -11 -7 0 9 19 34 26 34 2 0 6 -5 10 -12z m-46 -53 c0 -1 -10
-10 -22 -21 -14 -12 -18 -13 -10 -3 6 9 10 18 7 21 -3 2 2 5 10 5 8 0 15 -1
15 -2z m44 -6 c3 -3 -4 -5 -14 -6 -11 -1 -20 2 -20 7 0 8 25 8 34 -1z m-101
-34 c-3 -9 -8 -14 -10 -11 -3 3 -2 9 2 15 9 16 15 13 8 -4z m72 -5 c3 -6 -1
-7 -9 -4 -18 7 -21 14 -7 14 6 0 13 -4 16 -10z m-51 -50 c-6 -6 -10 -3 -10 10
0 13 4 16 10 10 7 -7 7 -13 0 -20z m157 -323 c-10 -9 -11 -8 -5 6 3 10 9 15
12 12 3 -3 0 -11 -7 -18z m-637 -25 c3 -5 -1 -9 -9 -9 -8 0 -12 4 -9 9 3 4 7
8 9 8 2 0 6 -4 9 -8z m43 -27 c0 -8 -4 -12 -9 -9 -5 3 -6 10 -3 15 9 13 12 11
12 -6z m363 -20 c0 -5 -5 -3 -10 5 -5 8 -10 20 -10 25 0 6 5 3 10 -5 5 -8 10
-19 10 -25z m-480 5 c0 -5 -5 -10 -11 -10 -5 0 -7 5 -4 10 3 6 8 10 11 10 2 0
4 -4 4 -10z m153 -25 c4 -8 3 -16 -1 -19 -4 -3 -9 4 -9 15 -2 23 3 25 10 4z
m325 -20 c-3 -3 -9 2 -12 12 -6 14 -5 15 5 6 7 -7 10 -15 7 -18z m-441 0 c0
-8 -4 -12 -9 -9 -4 3 -8 9 -8 15 0 5 4 9 8 9 5 0 9 -7 9 -15z m523 9 c0 -8
-19 -13 -24 -6 -3 5 1 9 9 9 8 0 15 -2 15 -3z m-180 -24 c0 -5 -2 -10 -4 -10
-3 0 -8 5 -11 10 -3 6 -1 10 4 10 6 0 11 -4 11 -10z"/>
<path d="M635 2840 c-3 -5 -1 -10 4 -10 6 0 11 5 11 10 0 6 -2 10 -4 10 -3 0
-8 -4 -11 -10z"/>
<path d="M670 2820 c0 -5 5 -10 11 -10 5 0 7 5 4 10 -3 6 -8 10 -11 10 -2 0
-4 -4 -4 -10z"/>
<path d="M680 2780 c-9 -6 -10 -10 -3 -10 6 0 15 5 18 10 8 12 4 12 -15 0z"/>
<path d="M710 2696 c0 -2 8 -10 18 -17 15 -13 16 -12 3 4 -13 16 -21 21 -21
13z"/>
<path d="M713 2635 c0 -8 4 -12 9 -9 5 3 6 10 3 15 -9 13 -12 11 -12 -6z"/>
</g>
</svg>
